<svg width="16" height="12" viewBox="0 0 16 12" fill="none" xmlns="http://www.w3.org/2000/svg">
<path fill-rule="evenodd" clip-rule="evenodd" d="M1.5998 0.400391C1.15798 0.400391 0.799805 0.758563 0.799805 1.20039C0.799805 1.64222 1.15798 2.00039 1.5998 2.00039H14.3998C14.8416 2.00039 15.1998 1.64222 15.1998 1.20039C15.1998 0.758563 14.8416 0.400391 14.3998 0.400391H1.5998ZM0.799805 6.00039C0.799805 5.55856 1.15798 5.20039 1.5998 5.20039H14.3998C14.8416 5.20039 15.1998 5.55856 15.1998 6.00039C15.1998 6.44222 14.8416 6.80039 14.3998 6.80039H1.5998C1.15798 6.80039 0.799805 6.44222 0.799805 6.00039ZM0.799805 10.8004C0.799805 10.3586 1.15798 10.0004 1.5998 10.0004H14.3998C14.8416 10.0004 15.1998 10.3586 15.1998 10.8004C15.1998 11.2422 14.8416 11.6004 14.3998 11.6004H1.5998C1.15798 11.6004 0.799805 11.2422 0.799805 10.8004Z" fill="#E63036"/>
</svg>
