<svg width="16" height="16" viewBox="0 0 16 16" fill="none" xmlns="http://www.w3.org/2000/svg">
<path fill-rule="evenodd" clip-rule="evenodd" d="M7.07691 1.23077C3.84817 1.23077 1.23077 3.84817 1.23077 7.07691C1.23077 10.3056 3.84817 12.9231 7.07691 12.9231C10.3056 12.9231 12.9231 10.3056 12.9231 7.07691C12.9231 3.84817 10.3056 1.23077 7.07691 1.23077ZM0 7.07691C0 3.16844 3.16844 0 7.07691 0C10.9854 0 14.1538 3.16844 14.1538 7.07691C14.1538 10.9854 10.9854 14.1538 7.07691 14.1538C3.16844 14.1538 0 10.9854 0 7.07691Z" fill="#E63036"/>
<path fill-rule="evenodd" clip-rule="evenodd" d="M11.2109 11.211C11.4512 10.9707 11.8408 10.9707 12.0812 11.211L15.8196 14.9495C16.0599 15.1898 16.0599 15.5794 15.8196 15.8198C15.5793 16.0601 15.1896 16.0601 14.9493 15.8198L11.2109 12.0813C10.9705 11.841 10.9705 11.4513 11.2109 11.211Z" fill="#E63036"/>
</svg>
